<svg width="62" height="58" viewBox="0 0 62 58" fill="none" xmlns="http://www.w3.org/2000/svg">
<path d="M31.0101 57.582C47.809 57.582 61.4768 44.6659 61.4768 28.791C61.4768 12.916 47.809 0 31.0101 0C14.2112 0 0.543457 12.916 0.543457 28.791C0.543457 44.6659 14.2112 57.582 31.0101 57.582ZM31.0101 2.87675C46.1316 2.87675 58.4326 14.5012 58.4326 28.791C58.4326 43.0808 46.1316 54.7052 31.0101 54.7052C15.8886 54.7052 3.58764 43.0808 3.58764 28.791C3.58764 14.5012 15.8886 2.87675 31.0101 2.87675Z" fill="#1F6650"/>
<path d="M17.7773 30.2352H40.5652L34.6011 35.8713C34.0047 36.4349 34.0047 37.339 34.6011 37.9026C34.8993 38.1844 35.2845 38.3253 35.6821 38.3253C36.0797 38.3253 36.4649 38.1844 36.7631 37.9026L45.324 29.8125C45.9205 29.2489 45.9205 28.3448 45.324 27.7811L36.7631 19.691C36.1667 19.1274 35.2099 19.1274 34.6135 19.691C34.0171 20.2546 34.0171 21.1587 34.6135 21.7224L40.5776 27.3584H17.7773C16.9324 27.3584 16.249 28.0042 16.249 28.8027C16.249 29.6011 16.9324 30.2352 17.7773 30.2352Z" fill="#1F6650"/>
</svg>
