<svg width="61" height="58" viewBox="0 0 61 58" fill="none" xmlns="http://www.w3.org/2000/svg">
<path d="M30.495 0.209717C13.6696 0.209717 0.0283203 13.1007 0.0283203 29.0007C0.0283203 44.9007 13.6696 57.7917 30.495 57.7917C47.3204 57.7917 60.9616 44.9007 60.9616 29.0007C60.9616 13.1007 47.3204 0.209717 30.495 0.209717ZM30.0167 47.079C27.104 47.079 25.1264 45.0513 25.1264 42.3518C25.1264 39.5953 27.1601 37.6246 30.0167 37.6246C32.9854 37.6246 34.9114 39.5953 34.9631 42.3518C34.9631 45.0513 32.9854 47.079 30.0167 47.079ZM36.6693 27.7548C34.6356 29.8802 33.8127 31.912 33.8687 34.245V35.1815H26.5612L26.5051 33.8297C26.3414 31.1791 27.2764 28.4795 29.7453 25.6741C31.5075 23.6993 32.938 22.0381 32.938 20.271C32.938 18.4509 31.6712 17.2579 28.918 17.1521C27.1084 17.1521 24.9066 17.775 23.4761 18.7115L21.6062 13.0478C23.5839 11.9566 26.8843 10.9183 30.788 10.9183C38.0438 10.9183 41.3442 14.709 41.3442 19.025C41.3442 22.9746 38.759 25.5723 36.6693 27.7548Z" fill="#1F6650"/>
</svg>
