<svg width="62" height="58" viewBox="0 0 62 58" fill="none" xmlns="http://www.w3.org/2000/svg">
<path d="M30.6275 0.209717C13.8034 0.209717 0.162109 13.1008 0.162109 28.9995C0.162109 44.8982 13.8034 57.7917 30.6275 57.7917C47.4515 57.7917 61.0954 44.8982 61.0954 28.9995C61.0954 13.1008 47.4515 0.209717 30.6275 0.209717ZM36.9697 44.8299C35.4015 45.4149 34.1532 45.8585 33.217 46.1656C32.2833 46.4727 31.1975 46.6263 29.962 46.6263C28.0638 46.6263 26.5859 46.1875 25.5336 45.3125C24.4813 44.4375 23.9577 43.3286 23.9577 41.9807C23.9577 41.4567 23.9964 40.9205 24.0738 40.3745C24.1537 39.8285 24.2801 39.2143 24.4529 38.5246L26.4157 31.973C26.5885 31.3442 26.7381 30.747 26.8567 30.1913C26.9753 29.6307 27.0321 29.1165 27.0321 28.6485C27.0321 27.8149 26.849 27.23 26.4853 26.9009C26.1165 26.5719 25.4227 26.411 24.3884 26.411C23.8829 26.411 23.3619 26.4817 22.828 26.6304C22.2993 26.7839 21.8402 26.9229 21.4636 27.0594L21.982 25.0413C23.2665 24.5465 24.4967 24.1224 25.6703 23.7714C26.8438 23.4156 27.9529 23.2401 28.9974 23.2401C30.8828 23.2401 32.3375 23.6739 33.3614 24.5318C34.3802 25.3922 34.8934 26.511 34.8934 27.8856C34.8934 28.1708 34.8573 28.6729 34.7877 29.3895C34.7181 30.1085 34.5865 30.7641 34.3957 31.3661L32.4432 37.8982C32.2833 38.4222 32.1415 39.0218 32.0125 39.6921C31.8861 40.3623 31.8242 40.8742 31.8242 41.2178C31.8242 42.0855 32.028 42.6778 32.4406 42.9922C32.8482 43.3066 33.5626 43.465 34.5736 43.465C35.0508 43.465 35.5847 43.3846 36.1882 43.2286C36.7866 43.0726 37.2199 42.9337 37.4933 42.8143L36.9697 44.8299ZM36.6241 18.3167C35.7136 19.1161 34.6175 19.5158 33.3356 19.5158C32.0563 19.5158 30.9524 19.1161 30.0343 18.3167C29.1212 17.5172 28.6596 16.5447 28.6596 15.4089C28.6596 14.2756 29.1238 13.3006 30.0343 12.4939C30.9524 11.6847 32.0563 11.2825 33.3356 11.2825C34.6175 11.2825 35.7162 11.6847 36.6241 12.4939C37.5345 13.3006 37.9911 14.2756 37.9911 15.4089C37.9911 16.5472 37.5345 17.5172 36.6241 18.3167Z" fill="#1F6650"/>
</svg>
