<?xml version="1.0" encoding="utf-8"?>
<!-- Generator: Adobe Illustrator 16.0.0, SVG Export Plug-In . SVG Version: 6.00 Build 0)  -->
<!DOCTYPE svg PUBLIC "-//W3C//DTD SVG 1.1//EN" "http://www.w3.org/Graphics/SVG/1.1/DTD/svg11.dtd">
<svg version="1.1" id="Layer_1" xmlns="http://www.w3.org/2000/svg" xmlns:xlink="http://www.w3.org/1999/xlink" x="0px" y="0px"
	 width="423.008px" height="404.434px" viewBox="0 0 423.008 404.434" enable-background="new 0 0 423.008 404.434"
	 xml:space="preserve">
<path fill="#307672" d="M313.123,371.509c34.826-120.377,69.531-240.342,104.532-361.329
	C282.824,73.998,149.17,137.256,14.955,200.782c1.988,0.912,3.267,1.547,4.58,2.096c35.108,14.697,70.204,29.424,105.358,44.008
	c2.835,1.176,4.247,2.844,5.113,5.688c5.18,17.029,10.505,34.014,15.8,51.01c1.911,6.133,3.876,12.25,5.929,18.729
	c12.985-8.652,25.587-16.939,38.043-25.441c2.501-1.709,4.195-1.834,6.82-0.139c33.956,21.924,68.001,43.711,102.024,65.527
	C303.332,365.28,308.056,368.278,313.123,371.509z M159.561,298.923c-1.137-3.912-2.087-7.154-3.021-10.402
	c-3.647-12.689-7.228-25.396-10.992-38.049c-0.667-2.244-0.396-3.531,1.473-5.088l159.711-133.376
	c21.531-17.994,43.045-36.01,64.572-54.01c1.088-0.911,2.215-1.775,3.895-2.114C303.498,136.696,231.794,217.509,159.561,298.923z"
	/>
</svg>
