<svg width="65" height="58" viewBox="0 0 65 58" fill="none" xmlns="http://www.w3.org/2000/svg">
<path d="M20.6007 34.6936C21.9277 35.6983 23.1333 36.2078 24.1837 36.2078C24.6342 36.2078 25.0618 36.114 25.4546 35.9287C26.7812 35.3029 27.3004 33.8162 27.496 32.5686C28.1486 33.0236 28.7559 33.5082 29.3047 34.0121C29.3828 34.0841 29.5076 34.0821 29.5838 34.0084L30.9595 32.6708C31.0355 32.5969 31.0338 32.4788 30.9556 32.407C29.9644 31.4963 28.8281 30.6559 27.5771 29.908C27.5373 28.2076 27.4796 26.4131 27.4508 25.5494H30.2903C30.3993 25.5494 30.4877 25.466 30.4877 25.3629V23.4973C30.4877 23.3942 30.3993 23.3108 30.2903 23.3108H19.0712C18.9622 23.3108 18.8738 23.3942 18.8738 23.4973V25.3629C18.8738 25.466 18.9622 25.5494 19.0712 25.5494H25.0807C25.1038 26.2365 25.1411 27.3938 25.1755 28.6512C23.7024 27.9824 22.6512 27.6834 22.6036 27.6699C21.9929 27.5009 21.4277 27.4151 20.9235 27.4151C19.3691 27.4151 18.69 28.2266 18.4235 28.7101C17.4742 30.4324 18.8144 33.3407 20.6007 34.6936ZM20.5245 29.7444C20.5421 29.7123 20.6483 29.6518 20.9245 29.6518C21.1945 29.6518 21.5426 29.7087 21.9303 29.8162C21.9447 29.8203 23.3968 30.2453 25.2349 31.2038C25.241 32.3236 24.909 33.6849 24.3957 33.9259C24.3369 33.9535 24.2619 33.9677 24.1728 33.9677C23.7016 33.9677 22.9394 33.5955 22.0823 32.9463C20.8963 32.0487 20.2355 30.2686 20.5245 29.7444Z" fill="#1F6650"/>
<path d="M35.0646 36.1377C35.0328 36.0709 34.9621 36.0276 34.8846 36.0276H33.5224C33.4447 36.0276 33.3742 36.0707 33.3424 36.1377L28.8494 45.5896C28.8219 45.6475 28.8273 45.7144 28.8638 45.7674C28.9001 45.8206 28.9625 45.8527 29.0294 45.8527H31.2256C31.301 45.8527 31.3699 45.812 31.4031 45.7478L32.2766 44.0553H36.1302L37.0037 45.7478C37.0369 45.812 37.1058 45.8527 37.1812 45.8527H39.3776C39.4445 45.8527 39.5069 45.8206 39.5432 45.7674C39.5797 45.7144 39.5851 45.6473 39.5576 45.5896L35.0646 36.1377ZM34.975 41.8166H33.432L34.2035 40.3218L34.975 41.8166Z" fill="#1F6650"/>
<path d="M33.4045 27.2318H36.2346C38.4195 27.2318 40.197 28.9115 40.197 30.9762V34.9003L36.9472 31.8291C36.87 31.7562 36.7453 31.7562 36.6681 31.8291L35.2722 33.1481C35.2351 33.1831 35.2144 33.2303 35.2144 33.2799C35.2144 33.3296 35.2351 33.377 35.2722 33.4118L41.242 39.0535C41.2792 39.0886 41.3293 39.1082 41.3816 39.1082C41.4339 39.1082 41.4843 39.0886 41.5212 39.0535L47.4914 33.4118C47.5285 33.3768 47.5493 33.3296 47.5493 33.2799C47.5493 33.2303 47.5285 33.1829 47.4914 33.1481L46.0955 31.8291C46.0183 31.7562 45.8936 31.7562 45.8164 31.8291L42.5663 34.9003V30.9762C42.5663 27.6771 39.726 24.9932 36.235 24.9932H33.4049C33.296 24.9932 33.2075 25.0766 33.2075 25.1797V27.0452C33.2071 27.1484 33.2956 27.2318 33.4045 27.2318Z" fill="#1F6650"/>
<path d="M61.5451 0.209717H4.17975C2.27495 0.209717 0.725098 1.67433 0.725098 3.47436V54.527C0.725098 56.3271 2.27495 57.7917 4.17975 57.7917H61.5451C63.4499 57.7917 64.9997 56.3271 64.9997 54.527V3.47436C64.9997 1.67414 63.4499 0.209717 61.5451 0.209717ZM54.7094 5.21544C56.2877 5.21544 57.5719 6.42896 57.5719 7.92043C57.5719 9.41191 56.2877 10.6254 54.7094 10.6254C53.1311 10.6254 51.847 9.41191 51.847 7.92043C51.847 6.42896 53.1311 5.21544 54.7094 5.21544ZM45.0027 5.21544C46.5809 5.21544 47.8651 6.42896 47.8651 7.92043C47.8651 9.41191 46.5809 10.6254 45.0027 10.6254C43.4244 10.6254 42.1402 9.41191 42.1402 7.92043C42.1402 6.42896 43.4244 5.21544 45.0027 5.21544ZM9.48984 6.5213H21.0382C21.8559 6.5213 22.5188 7.14755 22.5188 7.92043C22.5188 8.69331 21.8559 9.31956 21.0382 9.31956H9.48984C8.67217 9.31956 8.00928 8.69331 8.00928 7.92043C8.00928 7.14755 8.67217 6.5213 9.48984 6.5213ZM59.5126 52.1349C59.5126 52.3696 59.3104 52.5608 59.0617 52.5608H6.66315C6.41461 52.5608 6.21227 52.3696 6.21227 52.1349V16.9756H59.5126V52.1349Z" fill="#1F6650"/>
</svg>
