<svg width="69" height="58" viewBox="0 0 69 58" fill="none" xmlns="http://www.w3.org/2000/svg">
<path d="M51.1771 57.7917C57.05 38.6082 62.9025 19.4904 68.805 0.209717C46.0675 10.3799 23.5286 20.4607 0.89502 30.5844C1.23027 30.7297 1.44596 30.8309 1.66738 30.9184C7.58787 33.2605 13.5063 35.6074 19.4346 37.9316C19.9127 38.119 20.1508 38.3848 20.2968 38.838C21.1704 41.5518 22.0684 44.2585 22.9613 46.967C23.2836 47.9444 23.6149 48.9192 23.9611 49.9517C26.1509 48.5729 28.276 47.2523 30.3766 45.8974C30.7983 45.6251 31.084 45.6051 31.5267 45.8753C37.2529 49.3691 42.9941 52.8411 48.7317 56.3177C49.526 56.799 50.3226 57.2768 51.1771 57.7917ZM25.2809 46.2243C25.0891 45.6008 24.9289 45.0842 24.7714 44.5666C24.1564 42.5444 23.5525 40.5194 22.9178 38.503C22.8053 38.1454 22.851 37.9403 23.1662 37.6922L50.0993 16.4372C53.7302 13.5696 57.3583 10.6986 60.9885 7.83007C61.172 7.68489 61.362 7.5472 61.6454 7.49318C49.5539 20.3715 37.462 33.25 25.2809 46.2243Z" fill="#1F6650"/>
</svg>
