<svg width="54" height="58" viewBox="0 0 54 58" fill="none" xmlns="http://www.w3.org/2000/svg">
<path d="M0 0.209961L4.88339 52.0183L26.7957 57.7919L48.7693 51.9971L53.6565 0.209961H0V0.209961ZM43.5114 12.0795L41.8859 29.3385L41.8908 29.4317L41.884 29.646V29.6442L40.729 41.712L40.6018 42.7841L26.8283 46.3841V46.3846L26.8176 46.3933L13.0679 42.7731L12.1368 32.7958H18.8794L19.3577 37.8691L26.8302 39.783L26.8283 39.7866V39.7857L34.3284 37.8448L35.121 29.5831H19.4422L19.3077 28.1865L19.0013 24.9146L18.8405 23.1577H35.717L36.3308 16.7324H10.6264L10.4919 15.3367L10.1859 12.0639L10.0247 10.307H43.6722L43.5114 12.0795V12.0795Z" fill="#1F6650"/>
</svg>
